#!OML:ASF F:\VICON\USERDATA\INSTALL\rory3\rory3.ASF
:FULLY-SPECIFIED
:DEGREES
16
root 0.88649 17.7953 -14.5999 5.22612 -2.96515 -0.468792
lowerback 0.282839 -0.539202 -1.48446
upperback -3.97497 -0.656394 2.9621
thorax -4.20931 -0.21734 3.92604
lowerneck -15.1493 -4.35992 -11.0431
upperneck 26.3334 -4.79448 5.52379
head 11.5055 -2.61422 3.21477
rclavicle 1.09332e-014 1.11319e-014
rhumerus -35.3464 -8.55669 -82.1738
rradius 28.3466
rwrist 12.6701
rhand -5.35765 8.34005
rfingers 7.12502
rthumb 20.4497 -20.6031
lclavicle 1.09332e-014 1.11319e-014
lhumerus -33.1636 9.12738 89.7302
lradius 23.5446
lwrist -14.2607
lhand -13.0853 27.4502
lfingers 7.12502
lthumb 13.011 57.0245
rfemur -5.85132 6.67971 20.9043
rtibia 17.6104
rfoot -11.4374 -7.99806
rtoes 2.53413
lfemur -5.92765 -5.85327 -19.0025
ltibia 18.3996
lfoot -13.4589 8.77422
ltoes -2.97549
17
root 0.886037 17.7955 -14.598 5.2666 -3.01166 -0.476596
lowerback 0.11486 -0.527205 -1.43712
upperback -3.91655 -0.64084 2.93783
thorax -4.05468 -0.214869 3.86978
lowerneck -15.1775 -4.39088 -11.0329
upperneck 26.2945 -4.83798 5.52754
head 11.5003 -2.63125 3.20686
rclavicle -6.60959e-015 2.54444e-014
rhumerus -35.1891 -8.6424 -82.2074
rradius 28.2197
rwrist 12.7442
rhand -5.44358 8.41045
rfingers 7.12502
rthumb 20.3672 -20.5415
lclavicle -6.60959e-015 2.54444e-014
lhumerus -33.0373 9.17155 89.7012
lradius 23.509
lwrist -14.3109
lhand -12.9101 28.0749
lfingers 7.12502
lthumb 13.1798 57.6383
rfemur -5.90395 6.74959 20.9057
rtibia 17.5939
rfoot -11.4816 -8.01254
rtoes 2.52463
lfemur -5.90602 -5.85687 -18.9934
ltibia 18.3889
lfoot -13.5116 8.80327
ltoes -2.60684
18
root 0.885366 17.7997 -14.5977 5.21752 -3.04932 -0.51744
lowerback 0.136538 -0.536093 -1.4013
upperback -3.88495 -0.651565 2.96307
thorax -4.03329 -0.221702 3.87603
lowerneck -15.1477 -4.36463 -11.0849
upperneck 26.2589 -4.79456 5.54988
head 11.4787 -2.61399 3.23028
rclavicle -7.95139e-016 -2.38542e-015
rhumerus -35.0892 -8.64007 -82.2158
rradius 28.1506
rwrist 12.8184
rhand -5.35716 8.2893
rfingers 7.12502
rthumb 20.4502 -20.6538
lclavicle -7.95139e-016 -2.38542e-015
lhumerus -32.9811 9.36152 89.6487
lradius 23.4208
lwrist -14.3825
lhand -12.7799 28.0956
lfingers 7.12502
lthumb 13.3053 57.6509
rfemur -5.84792 6.78301 20.9451
rtibia 17.5788
rfoot -11.5515 -7.92327
rtoes 3.09537
lfemur -5.81621 -5.91333 -18.9605
ltibia 18.3783
lfoot -13.4515 8.87151
ltoes -2.18518
19
root 0.883675 17.8033 -14.5995 5.14629 -3.00881 -0.538267
lowerback 0.307611 -0.552431 -1.46204
upperback -3.92763 -0.672356 3.01849
thorax -4.1725 -0.22618 3.97244
lowerneck -15.1086 -4.35945 -11.1291
upperneck 26.2872 -4.77331 5.5239
head 11.4807 -2.61313 3.23206
rclavicle -6.26172e-015 -1.35174e-014
rhumerus -35.1897 -8.50015 -82.1803
rradius 28.1967
rwrist 12.7206
rhand -5.29767 8.40444
rfingers 7.12502
rthumb 20.5074 -20.5325
lclavicle -6.26172e-015 -1.35174e-014
lhumerus -33.0624 9.3009 89.7293
lradius 23.3839
lwrist -14.2584
lhand -13.02 27.7796
lfingers 7.12502
lthumb 13.0739 57.3498
rfemur -5.77199 6.91147 20.9855
rtibia 17.5988
rfoot -11.5619 -8.00865
rtoes 3.83995
lfemur -5.72001 -5.89034 -18.9297
ltibia 18.3464
lfoot -13.4645 8.78409
ltoes -2.22829
20
root 0.883104 17.8008 -14.6 5.16224 -2.92272 -0.522518
lowerback 0.296642 -0.585381 -1.50919
upperback -3.94535 -0.716863 3.03429
thorax -4.1807 -0.246083 4.01741
lowerneck -15.1031 -4.35962 -11.1167
upperneck 26.272 -4.76849 5.49369
head 11.4723 -2.61321 3.21911
rclavicle -7.45443e-016 -2.54444e-014
rhumerus -35.2708 -8.37942 -82.1928
rradius 28.2746
rwrist 12.5648
rhand -5.40022 8.47169
rfingers 7.12502
rthumb 20.4088 -20.4758
lclavicle -7.45443e-016 -2.54444e-014
lhumerus -33.0683 9.29286 89.745
lradius 23.3085
lwrist -14.3658
lhand -13.2482 27.2483
lfingers 7.12502
lthumb 12.8539 56.8325
rfemur -5.76105 6.87433 20.9883
rtibia 17.615
rfoot -11.5793 -8.08358
rtoes 3.5136
lfemur -5.7863 -5.93407 -18.9267
ltibia 18.3172
lfoot -13.4353 8.758
ltoes -2.54223
21
root 0.884482 17.7967 -14.5983 5.15303 -2.9149 -0.494571
lowerback 0.193426 -0.53237 -1.42727
upperback -3.83976 -0.64921 2.92061
thorax -4.0187 -0.221139 3.84649
lowerneck -15.2985 -4.428 -10.971
upperneck 26.2902 -4.88726 5.50618
head 11.5253 -2.64777 3.17946
rclavicle -1.23743e-014 2.22639e-014
rhumerus -35.2012 -8.57446 -82.3008
rradius 28.384
rwrist 12.4714
rhand -5.57756 8.5262
rfingers 7.12502
rthumb 20.2384 -20.4394
lclavicle -1.23743e-014 2.22639e-014
lhumerus -32.9014 9.07388 89.7168
lradius 23.36
lwrist -14.3401
lhand -13.2599 26.9331
lfingers 7.12502
lthumb 12.8426 56.518
rfemur -5.72459 6.73276 20.9618
rtibia 17.6088
rfoot -11.5296 -8.03627
rtoes 2.95704
lfemur -5.81918 -5.9606 -18.9702
ltibia 18.338
lfoot -13.4618 8.83202
ltoes -3.08101
22
root 0.886081 17.7993 -14.5987 5.16252 -2.85887 -0.508625
lowerback 0.191177 -0.499152 -1.31593
upperback -3.8053 -0.605297 2.83576
thorax -3.98612 -0.20543 3.69293
lowerneck -15.4033 -4.47246 -10.8781
upperneck 26.2967 -4.97971 5.55851
head 11.5556 -2.67209 3.1684
rclavicle 5.71506e-016 0
rhumerus -35.2195 -8.79217 -82.3481
rradius 28.513
rwrist 12.4824
rhand -5.65522 8.74088
rfingers 7.12502
rthumb 20.1638 -20.2327
lclavicle 5.71506e-016 0
lhumerus -32.8855 8.76348 89.7321
lradius 23.5075
lwrist -14.0634
lhand -13.2238 27.1891
lfingers 7.12502
lthumb 12.8774 56.7718
rfemur -5.74892 6.60596 20.9809
rtibia 17.5962
rfoot -11.4252 -8.01764
rtoes 2.66082
lfemur -5.82251 -5.96669 -18.955
ltibia 18.3801
lfoot -13.5759 8.70748
ltoes -2.87136
